<svg width="74" height="74" viewBox="0 0 74 74" fill="none" xmlns="http://www.w3.org/2000/svg">
<circle cx="37" cy="36.9995" r="37" fill="#12100a"/>
<path d="M34.847 30.8063C34.1364 30.3259 33.298 30.0697 32.4403 30.0711C30.063 30.0711 28.1357 31.9984 28.1357 34.3757C28.1357 36.753 30.063 38.6802 32.4403 38.6802C33.4059 38.6802 34.2 38.3623 34.8027 37.8255C34.9278 37.714 35.0446 37.5935 35.1521 37.465M51.2422 39.237C51.2422 39.237 48.7691 39.2681 48.652 39.2291C48.5349 39.1901 48.8398 38.9838 50.4613 36.6671C50.7641 36.2344 50.9308 35.8694 51.0017 35.5636L51.0268 35.367C51.0268 34.6486 50.4445 34.0663 49.7261 34.0663C49.094 34.0663 48.5672 34.5171 48.4498 35.1148" stroke="white" stroke-width="2" stroke-miterlimit="10" stroke-linecap="round" stroke-linejoin="round"/>
<path d="M41.4881 38.6802C43.8655 38.6802 45.7927 36.753 45.7927 34.3757C45.7927 31.9983 43.8655 30.0711 41.4881 30.0711C39.1108 30.0711 37.1836 31.9983 37.1836 34.3757C37.1836 36.753 39.1108 38.6802 41.4881 38.6802Z" stroke="white" stroke-width="2" stroke-miterlimit="10" stroke-linecap="round" stroke-linejoin="round"/>
<path d="M48.7382 18.2737C46.8858 16.8483 44.566 16 42.0479 16C36.3315 16 31.6361 20.3681 31.1155 25.9484C30.1758 25.4227 29.1167 25.1472 28.0399 25.1484C24.7267 25.1484 22.0113 27.7006 21.7482 30.946C17.5848 30.5169 14 33.7803 14 37.9284C14 39.273 14.3786 40.5288 15.0342 41.5964M16.9189 43.6242C18.0728 44.4565 19.4885 44.9484 21.0199 44.9484H21.8462V42.7892C21.8462 41.6963 22.7321 40.8104 23.8249 40.8104H27.3538C28.4466 40.8104 29.3325 41.6963 29.3325 42.7892V44.9484H51.7616C56.22 44.9484 59.8343 41.3341 59.8343 36.8757C59.8343 32.7918 56.8014 29.4166 52.8652 28.8784C52.9742 28.2519 53.029 27.6171 53.0289 26.9811C53.0289 24.4318 52.16 22.0857 50.7026 20.2221" stroke="white" stroke-width="2" stroke-miterlimit="10" stroke-linecap="round" stroke-linejoin="round"/>
<path d="M31.0804 50.0903H29.3334V42.7891C29.3334 41.6963 28.4475 40.8104 27.3547 40.8104H23.8258C22.733 40.8104 21.8471 41.6963 21.8471 42.7891V50.0903H20.0999C19.1891 50.0903 18.747 51.204 19.41 51.8286L23.2665 55.4618C24.5717 56.6913 26.6087 56.6913 27.9138 55.4618L31.7703 51.8286C32.4332 51.204 31.9912 50.0903 31.0804 50.0903Z" stroke="white" stroke-width="2" stroke-miterlimit="10" stroke-linecap="round" stroke-linejoin="round"/>
</svg>
