<svg width="74" height="74" viewBox="0 0 74 74" fill="none" xmlns="http://www.w3.org/2000/svg">
<circle cx="37" cy="37" r="37" fill="#d6a21e"/>
<path d="M32.7635 56.5355C33.4836 56.6775 34.2128 56.7456 34.9432 56.7456C36.7354 56.7456 38.5254 56.3259 40.1782 55.5813C41.8533 56.5157 43.6838 57 45.4817 57C46.1184 57 46.7505 56.9395 47.37 56.8172C53.7805 55.5511 57.7102 49.3089 58.7338 38.7642C59.4933 30.9392 58.3874 23.3797 58.376 23.304L58.2651 22.56L57.5856 22.8569C57.5028 22.893 49.3902 26.4673 42.8865 31.9742C41.1126 29.8582 38.8757 27.7439 36.1788 25.6488C28.8498 19.955 20.6144 16.3336 20.531 16.2969L19.8526 16L19.7412 16.7445C19.728 16.8342 18.4136 25.8252 19.3166 35.1317C20.5304 47.637 25.1802 55.0388 32.7635 56.5355ZM57.345 24.2447C57.8994 28.8866 60.146 53.1085 47.1522 55.6739C45.2914 56.0412 43.2969 55.7764 41.4561 54.9299C43.5981 53.6824 45.4023 51.8522 46.5196 49.6471L49.4543 48.7955L49.1411 47.6754L47.1145 48.2634C47.7032 46.6084 47.9592 44.9237 47.8883 43.2181L51.8723 42.0643L51.5602 40.9443L48.3198 41.8827L51.2402 36.5538L50.2424 35.9869L47.5837 40.8383C47.0139 38.2088 45.6863 35.5421 43.6163 32.8742C48.8936 28.404 55.2653 25.2239 57.345 24.2447ZM20.7716 17.6835C25.4162 19.8619 51.6614 32.9604 45.9595 48.0981C45.0742 50.4481 43.3386 52.4035 41.2126 53.729L38.3145 48.4491L40.3222 41.3407L39.2238 41.0188L37.5292 47.0182L33.6276 39.9104L35.1186 34.6311L34.0202 34.3092L32.8429 38.479L29.2259 31.8904L28.228 32.458L31.8399 39.0384L27.7217 37.8473L27.4096 38.9668L32.6292 40.4768L36.5263 47.5771L30.5998 45.8633L30.2883 46.9833L37.3161 49.0161L40.2113 54.2913C37.9762 55.416 35.4187 55.8724 32.9812 55.3916C17.2734 52.2923 20.1447 22.836 20.7716 17.6835Z" fill="white"/>
</svg>
