<svg width="74" height="74" viewBox="0 0 74 74" fill="none" xmlns="http://www.w3.org/2000/svg">
<circle cx="37" cy="37" r="37" fill="#5E7783"/>
<path d="M58.1262 42.3177C58.1262 42.3177 58.1261 42.3176 58.1261 42.3176L53.3968 34.2135C53.3505 34.1343 53.2744 34.0765 53.1851 34.0528C53.0959 34.0291 53.0008 34.0415 52.9206 34.0873L46.458 37.7777C46.2913 37.8729 46.2342 38.0837 46.3305 38.2486L50.9331 46.1338H42.5672V42.9633C42.5672 42.8253 42.484 42.7005 42.3557 42.6463C42.2275 42.592 42.0786 42.6187 41.9778 42.7141L34.3563 49.9218C34.2874 49.9869 34.2486 50.0769 34.2486 50.171C34.2486 50.2651 34.2874 50.3551 34.3563 50.4202L41.9778 57.6278C42.0439 57.6904 42.1307 57.7234 42.2187 57.7234C42.265 57.7234 42.3115 57.7143 42.3557 57.6957C42.484 57.6414 42.5672 57.5167 42.5672 57.3787V54.2062H50.1579C53.0438 54.2062 55.6226 52.3947 56.5749 49.6984L58.3509 44.6663C58.3509 44.6662 58.351 44.6661 58.3511 44.666C58.6253 43.8867 58.5434 43.0309 58.1262 42.3177ZM52.9673 34.8568L57.4742 42.5796C57.474 42.5838 57.4737 42.5886 57.4734 42.5931C57.4629 42.7812 57.4077 43.2417 57.1346 43.7708C57.1262 43.7871 57.118 43.8033 57.1092 43.8198C57.0912 43.8531 57.0718 43.8869 57.052 43.9207C57.0383 43.9442 57.0241 43.9678 57.0094 43.9915C56.9908 44.0216 56.9715 44.0518 56.9514 44.0821C56.9319 44.1113 56.9112 44.1407 56.8902 44.1701C56.8716 44.1964 56.8531 44.2226 56.8332 44.2489C56.8041 44.2874 56.7727 44.3259 56.7409 44.3644C56.7259 44.3825 56.7122 44.4006 56.6967 44.4186C56.6478 44.4753 56.596 44.5318 56.5409 44.588C56.5153 44.6141 56.4876 44.6387 56.4611 44.6641C56.4233 44.7004 56.3862 44.7372 56.3466 44.7721C56.3186 44.797 56.2885 44.8203 56.2595 44.8445C56.2191 44.8781 56.1793 44.9122 56.1372 44.9445C56.1065 44.9681 56.074 44.9902 56.0424 45.0131C55.9995 45.0441 55.9571 45.0755 55.9126 45.1053C55.8791 45.1276 55.8439 45.1485 55.8096 45.1701C55.7644 45.1985 55.7196 45.2272 55.6728 45.2543C55.6366 45.2752 55.5988 45.2949 55.5617 45.3151C55.5141 45.341 55.4669 45.3672 55.4177 45.3918C55.379 45.4112 55.3388 45.4294 55.2991 45.448C55.249 45.4716 55.1992 45.4953 55.1476 45.5177C55.1062 45.5356 55.0633 45.5523 55.0209 45.5694C54.9686 45.5906 54.9165 45.6118 54.8627 45.6318C54.8185 45.6481 54.7729 45.6634 54.7277 45.679C54.6732 45.6978 54.6188 45.7167 54.5628 45.7343C54.5158 45.749 54.4676 45.7627 54.4196 45.7767C54.3629 45.7932 54.3062 45.8097 54.248 45.8251C54.1984 45.8382 54.1475 45.8503 54.0967 45.8626C54.0378 45.8768 53.9788 45.891 53.9185 45.9042C53.866 45.9156 53.8124 45.9261 53.7589 45.9367C53.6979 45.9487 53.6368 45.9606 53.5744 45.9715C53.5192 45.9812 53.4629 45.9901 53.4066 45.9988C53.3433 46.0087 53.2799 46.0185 53.2153 46.0273C53.1575 46.0351 53.0987 46.0422 53.0399 46.0492C52.9744 46.0569 52.9086 46.0645 52.8418 46.0712C52.7813 46.0772 52.7198 46.0826 52.6582 46.0878C52.5906 46.0934 52.5226 46.0988 52.4536 46.1034C52.3906 46.1076 52.3267 46.1111 52.2625 46.1144C52.1925 46.1181 52.1221 46.1213 52.0508 46.1238C51.9854 46.1261 51.9193 46.1278 51.8528 46.1293C51.8144 46.1301 51.7752 46.1304 51.7364 46.1309L47.1085 38.2024L52.9673 34.8568ZM57.6927 44.4394L55.9167 49.4711C55.0621 51.8909 52.7478 53.5167 50.1579 53.5167H42.2187C42.0262 53.5167 41.8701 53.6711 41.8701 53.8615V56.5721L35.1015 50.171L41.8701 43.7699V46.4785C41.8701 46.6689 42.0262 46.8233 42.2187 46.8233H51.5368C54.0524 46.8233 55.9067 46.2304 57.0485 45.0611C57.1143 44.9938 57.1751 44.9258 57.2334 44.8577C57.2434 44.8461 57.2536 44.8345 57.2634 44.8228C57.3181 44.7576 57.3693 44.6923 57.4176 44.6269C57.4269 44.6144 57.4359 44.6018 57.445 44.5892C57.4931 44.5225 57.5389 44.4559 57.5809 44.3897C57.5837 44.3852 57.5862 44.3808 57.589 44.3764C57.6298 44.3115 57.6673 44.2471 57.7026 44.1832C57.708 44.1734 57.7137 44.1636 57.7189 44.1538C57.7461 44.1037 57.7721 44.0538 57.7961 44.0045C57.7772 44.1513 57.7427 44.297 57.6927 44.4394ZM25.7889 27.0535L32.2516 30.7437C32.3065 30.7751 32.3665 30.79 32.4256 30.79C32.5461 30.79 32.6632 30.7281 32.7278 30.6176L37.3308 22.7326L41.5137 29.8983L38.7376 31.4836C38.6168 31.5526 38.5492 31.6863 38.5659 31.8233C38.5825 31.9603 38.6803 32.0744 38.8142 32.113L48.9361 35.0373C48.9681 35.0466 49.001 35.0512 49.0338 35.0512C49.0944 35.0512 49.1546 35.0355 49.2081 35.005C49.2905 34.9579 49.3499 34.8796 49.3725 34.7882L51.8728 24.6562C51.9059 24.5221 51.8549 24.3814 51.7433 24.2986C51.6317 24.2159 51.4808 24.2069 51.3599 24.2759L48.5821 25.8621L44.7867 19.3604C43.3438 16.8886 40.4687 15.5856 37.6312 16.1179L32.3369 17.1127C32.3369 17.1127 32.3367 17.1128 32.3367 17.1128C31.5171 17.2675 30.8088 17.7656 30.3929 18.4794C30.3929 18.4795 30.3928 18.4795 30.3928 18.4796L25.6613 26.5825C25.6151 26.6617 25.6026 26.7558 25.6265 26.8441C25.6505 26.9324 25.7089 27.0078 25.7889 27.0535ZM32.4674 17.79L37.7612 16.7953C40.3073 16.3176 42.888 17.4869 44.183 19.7052L48.1526 26.5054C48.2488 26.6703 48.4619 26.7268 48.6288 26.6316L51.0022 25.2763L48.7817 34.2744L39.7924 31.6774L42.1642 30.3231C42.3309 30.2279 42.388 30.017 42.2917 29.8522L37.6327 21.8708C36.3749 19.7161 34.9286 18.4242 33.3339 18.0309C33.242 18.0082 33.1521 17.9901 33.0632 17.9742C33.0481 17.9714 33.0329 17.9685 33.0179 17.966C32.9332 17.9517 32.85 17.9404 32.7684 17.9317C32.7534 17.9301 32.7385 17.9287 32.7236 17.9273C32.6404 17.9193 32.5586 17.9134 32.479 17.9105C32.4748 17.9103 32.4708 17.9104 32.4665 17.9103C32.3885 17.9077 32.3126 17.9078 32.2383 17.9096C32.2268 17.9098 32.2152 17.9099 32.2039 17.9102C32.1465 17.9121 32.0899 17.9148 32.0349 17.9189C32.1729 17.8617 32.3177 17.8183 32.4674 17.79ZM30.9483 18.907C30.9506 18.9057 30.9535 18.9044 30.9559 18.9031C31.1231 18.8189 31.5571 18.6328 32.1627 18.6022C32.1804 18.6013 32.1978 18.6002 32.2158 18.5996C32.2544 18.5983 32.2942 18.598 32.3341 18.598C32.3613 18.5981 32.3886 18.5984 32.4164 18.5992C32.4523 18.6 32.4885 18.6015 32.5253 18.6036C32.5605 18.6056 32.5965 18.6086 32.6326 18.6119C32.665 18.6148 32.6972 18.6175 32.7303 18.6213C32.779 18.6271 32.8287 18.6348 32.8788 18.6429C32.9016 18.6466 32.9238 18.6492 32.9469 18.6534C33.0212 18.667 33.0968 18.6831 33.1738 18.7023C33.2081 18.7109 33.242 18.7218 33.2762 18.7314C33.3282 18.7459 33.3804 18.7598 33.4321 18.7766C33.4668 18.7879 33.5012 18.8016 33.5357 18.8139C33.5865 18.832 33.6374 18.8495 33.6879 18.8699C33.7228 18.884 33.7575 18.9003 33.7923 18.9155C33.8419 18.9371 33.8916 18.9582 33.9409 18.982C33.9762 18.999 34.0112 19.0182 34.0463 19.0363C34.0948 19.0613 34.1433 19.0858 34.1915 19.1129C34.227 19.133 34.2623 19.155 34.2977 19.1762C34.3449 19.2044 34.3922 19.2323 34.4391 19.2625C34.4751 19.2857 34.5107 19.3108 34.5464 19.3352C34.5925 19.3666 34.6386 19.3976 34.6844 19.431C34.7203 19.4572 34.756 19.4852 34.7917 19.5126C34.8368 19.5472 34.882 19.5815 34.9268 19.618C34.9629 19.6474 34.9987 19.6786 35.0346 19.7092C35.0786 19.7468 35.1226 19.7841 35.1663 19.8235C35.2026 19.8562 35.2386 19.8906 35.2746 19.9246C35.3176 19.965 35.3605 20.0054 35.4031 20.0477C35.4393 20.0836 35.4753 20.121 35.5113 20.1582C35.5534 20.2017 35.5954 20.2452 35.6372 20.2904C35.6733 20.3295 35.7092 20.3701 35.7451 20.4105C35.7862 20.4569 35.8274 20.5034 35.8683 20.5516C35.9042 20.5938 35.9399 20.6375 35.9756 20.6811C36.0161 20.7305 36.0564 20.7801 36.0966 20.8312C36.1323 20.8767 36.1679 20.9235 36.2034 20.9704C36.243 21.0226 36.2825 21.0752 36.3218 21.1291C36.3572 21.1778 36.3925 21.2276 36.4277 21.2777C36.4666 21.3329 36.5055 21.3887 36.5441 21.4457C36.5792 21.4974 36.6141 21.5501 36.6489 21.6033C36.6873 21.6616 36.7255 21.7206 36.7635 21.7807C36.798 21.8352 36.8324 21.8906 36.8667 21.9465C36.8867 21.9793 36.9067 22.0128 36.9267 22.046L32.2983 29.9743L26.4394 26.6287L30.9483 18.907ZM32.7951 46.1773L23.5895 46.177L27.7724 39.0113L30.5485 40.5966C30.6694 40.6657 30.8203 40.6566 30.9318 40.5739C31.0435 40.4911 31.0945 40.3504 31.0614 40.2163L28.561 30.0843C28.5385 29.9928 28.479 29.9145 28.3967 29.8675C28.3142 29.8204 28.216 29.8088 28.1246 29.8351L18.0027 32.7594C17.8688 32.7981 17.771 32.9121 17.7544 33.0492C17.7377 33.1862 17.8053 33.3199 17.9262 33.3889L20.704 34.9751L16.9087 41.4769C15.4658 43.9487 15.7626 47.0633 17.6473 49.2271L21.1655 53.2644C21.1655 53.2645 21.1656 53.2646 21.1657 53.2647C21.7104 53.8886 22.4997 54.2463 23.3318 54.2463C23.3327 54.2463 23.3336 54.2463 23.3344 54.2463L32.7952 54.2475C32.7952 54.2475 32.7952 54.2475 32.7952 54.2475C32.8877 54.2475 32.9763 54.2111 33.0417 54.1465C33.1071 54.0819 33.1438 53.9942 33.1438 53.9027L33.1437 46.522C33.1437 46.3316 32.9876 46.1773 32.7951 46.1773ZM21.6935 52.8143L18.1754 48.7771C16.4839 46.8351 16.2175 44.0399 17.5124 41.8216L21.482 35.0213C21.5783 34.8564 21.5212 34.6456 21.3545 34.5504L18.981 33.1951L27.9702 30.598L30.1908 39.5962L27.8191 38.2419C27.739 38.1961 27.6439 38.1837 27.5546 38.2074C27.4653 38.2311 27.3892 38.2889 27.3429 38.3681L22.6839 46.3494C21.4261 48.5041 21.018 50.3888 21.471 51.9514C21.5028 52.061 21.5387 52.1651 21.5768 52.2658C21.5893 52.2988 21.603 52.3295 21.6161 52.3616C21.6431 52.4277 21.6706 52.4928 21.6998 52.5551C21.7162 52.5898 21.7331 52.6232 21.7501 52.6568C21.7785 52.713 21.8074 52.7677 21.8373 52.8206C21.8553 52.8524 21.8733 52.8839 21.8918 52.9146C21.9232 52.9667 21.9551 53.0166 21.9876 53.0653C21.9994 53.083 22.0106 53.1029 22.0224 53.1201C21.9034 53.0306 21.7931 52.9283 21.6935 52.8143ZM23.4312 53.5568C23.426 53.5535 23.421 53.5503 23.4153 53.5466C23.4084 53.5422 23.4014 53.5376 23.3938 53.5325C23.3816 53.5243 23.3678 53.5147 23.3537 53.5049C23.3459 53.4994 23.3385 53.4943 23.3301 53.4883C23.3092 53.4733 23.2867 53.4565 23.263 53.4383C23.2601 53.4361 23.2577 53.4344 23.2549 53.4322C23.2286 53.4118 23.2005 53.389 23.1714 53.3647C23.1621 53.3569 23.1522 53.3481 23.1427 53.3399C23.1221 53.3222 23.1011 53.3038 23.0794 53.2841C23.0674 53.2731 23.055 53.2614 23.0427 53.2498C23.0222 53.2305 23.0014 53.2104 22.9803 53.1895C22.9672 53.1764 22.9539 53.163 22.9406 53.1493C22.919 53.1271 22.8971 53.1035 22.8751 53.0794C22.8621 53.0652 22.8492 53.0513 22.8361 53.0364C22.8106 53.0074 22.7849 52.9766 22.7591 52.9451C22.7496 52.9334 22.7401 52.9226 22.7305 52.9106C22.6956 52.8666 22.6607 52.8203 22.6262 52.7717C22.6177 52.7598 22.6095 52.7467 22.6011 52.7344C22.575 52.6967 22.5492 52.6581 22.5238 52.6177C22.5117 52.5985 22.4999 52.5782 22.488 52.5583C22.4666 52.5225 22.4454 52.486 22.4246 52.4481C22.4122 52.4254 22.4 52.4022 22.3879 52.3788C22.3681 52.3406 22.3489 52.3011 22.33 52.2609C22.3187 52.2366 22.3073 52.2123 22.2963 52.1873C22.2768 52.143 22.2584 52.0969 22.2403 52.0502C22.2314 52.0274 22.222 52.0052 22.2135 51.9817C22.1877 51.9107 22.1632 51.8377 22.1411 51.7614C22.1165 51.6766 22.0951 51.5906 22.0765 51.5034C22.07 51.4732 22.0658 51.442 22.0601 51.4116C22.0493 51.354 22.038 51.2967 22.0297 51.2381C22.0244 51.2006 22.0215 51.162 22.0172 51.124C22.0113 51.0713 22.0046 51.0189 22.0007 50.9654C21.9977 50.9245 21.9971 50.8826 21.9953 50.8413C21.993 50.7894 21.99 50.7379 21.9895 50.6852C21.9891 50.642 21.9911 50.5978 21.9919 50.5541C21.993 50.5022 21.9933 50.4506 21.9961 50.398C21.9985 50.3528 22.0031 50.3067 22.0068 50.2609C22.011 50.2086 22.0146 50.1565 22.0205 50.1035C22.0257 50.0566 22.033 50.009 22.0396 49.9616C22.0469 49.9085 22.0537 49.8557 22.0627 49.8019C22.0708 49.7535 22.0808 49.7042 22.0902 49.6553C22.1006 49.6015 22.1106 49.5478 22.1226 49.4934C22.1336 49.4435 22.1464 49.393 22.1587 49.3426C22.1721 49.2878 22.1852 49.2331 22.2003 49.1777C22.2141 49.1265 22.2297 49.0746 22.245 49.0229C22.2614 48.9672 22.2776 48.9116 22.2956 48.8554C22.3124 48.8029 22.3308 48.7498 22.3489 48.6968C22.3683 48.64 22.3878 48.5832 22.4088 48.5259C22.4284 48.4723 22.4495 48.4181 22.4705 48.364C22.493 48.3061 22.5156 48.2482 22.5397 48.1897C22.5621 48.135 22.586 48.0798 22.6098 48.0246C22.6353 47.9656 22.6611 47.9065 22.6882 47.8468C22.7136 47.791 22.7401 47.7346 22.7669 47.6783C22.7954 47.6183 22.8243 47.5582 22.8543 47.4976C22.8826 47.4405 22.912 47.383 22.9417 47.3254C22.9732 47.2643 23.0052 47.2031 23.0382 47.1415C23.0694 47.0833 23.1015 47.0247 23.1341 46.9661C23.1525 46.933 23.1715 46.8997 23.1903 46.8665L32.4466 46.8668L32.4467 53.5579L23.4312 53.5568Z" fill="white" stroke="white" stroke-width="0.5"/>
</svg>
