<svg width="23" height="24" viewBox="0 0 23 24" fill="none" xmlns="http://www.w3.org/2000/svg">
<path d="M11.454 9.80813e-06C15.9501 0.00664193 19.5466 3.97597 19.5466 8.4742C19.5466 11.6858 17.6725 14.6122 15.7814 16.8008C17.6861 17.0363 19.3456 17.416 20.5876 17.9217C21.2929 18.2085 21.8704 18.5318 22.2947 18.9115C22.7189 19.2929 23 19.7554 23 20.2694C23 20.9094 22.5741 21.4549 21.9556 21.8943C21.3355 22.3337 20.487 22.7001 19.4563 23.0085C17.3948 23.6253 14.5939 24 11.5 24C8.40607 24 5.60518 23.6253 3.5437 23.0085C2.51296 22.7001 1.66452 22.3337 1.04437 21.8943C0.424221 21.4549 0 20.9094 0 20.2694C0 19.7554 0.281111 19.2945 0.701925 18.9148C1.12444 18.5368 1.70029 18.2118 2.40222 17.925C3.634 17.4209 5.28148 17.0446 7.17089 16.8075C5.24911 14.5227 3.36141 11.3907 3.36141 7.84913C3.36141 3.35089 7.00222 -0.00662231 11.454 9.80813e-06ZM11.454 0.829025C7.44007 0.822393 4.21326 3.78198 4.21326 7.84913C4.21326 14.2524 10.9923 19.3857 11.4574 19.7339C11.6874 19.5648 13.2088 18.4672 14.9636 16.4792C16.8479 14.3469 18.6947 11.4603 18.6947 8.4742C18.6947 4.40705 15.4304 0.835657 11.454 0.829025ZM11.5733 4.7254C12.3625 4.75773 13.1065 5.09307 13.6423 5.65801C14.1781 6.22295 14.4621 6.97146 14.4321 7.7397C14.3989 8.50811 14.054 9.23238 13.4732 9.75386C12.8923 10.2753 12.1227 10.5515 11.333 10.5219C10.5438 10.4891 9.79997 10.1534 9.26449 9.58811C8.72901 9.02285 8.44547 8.27416 8.47593 7.50591C8.50959 6.73809 8.85436 6.0145 9.43481 5.49342C10.0153 4.97235 10.7841 4.6962 11.5733 4.7254ZM11.5392 5.5511C11.2595 5.53954 10.9802 5.58186 10.7174 5.67561C10.4545 5.76936 10.2133 5.9127 10.0075 6.0974C9.80172 6.28211 9.63544 6.50454 9.51821 6.75194C9.40098 6.99934 9.33511 7.26684 9.32437 7.53907C9.31227 7.81124 9.35561 8.08304 9.45188 8.33884C9.54814 8.59464 9.69545 8.82938 9.8853 9.02956C10.0752 9.22974 10.3038 9.3914 10.5581 9.50523C10.8124 9.61907 11.0874 9.68283 11.3671 9.69286C11.6465 9.70463 11.9256 9.6625 12.1883 9.5689C12.4509 9.47529 12.6919 9.33206 12.8975 9.14744C13.103 8.96283 13.269 8.74048 13.3859 8.49319C13.5027 8.2459 13.5682 7.97855 13.5785 7.70653C13.5908 7.43437 13.5477 7.16252 13.4517 6.90663C13.3556 6.65075 13.2085 6.41588 13.0188 6.21554C12.8291 6.01521 12.6006 5.85337 12.3463 5.73933C12.0921 5.6253 11.8189 5.56133 11.5392 5.5511ZM15.0999 17.5519C13.3366 19.4288 11.7061 20.6359 11.7061 20.6359L11.454 20.8182L11.2001 20.6359C11.2001 20.6359 9.59867 19.462 7.84896 17.5586C5.76704 17.7791 3.97474 18.1836 2.73274 18.691C2.08874 18.9546 1.59296 19.2431 1.28119 19.5233C0.969406 19.8052 0.851851 20.0473 0.851851 20.2694C0.851851 20.5447 1.04607 20.8696 1.54696 21.2245C2.04785 21.5793 2.82133 21.9275 3.79415 22.2193C5.73978 22.7996 8.47763 23.171 11.5 23.171C14.5224 23.171 17.2602 22.8012 19.2059 22.2176C20.1787 21.9275 20.9521 21.5793 21.453 21.2228C21.9539 20.8696 22.1481 20.5447 22.1481 20.2694C22.1481 20.0473 22.0323 19.8019 21.7188 19.52C21.4053 19.2381 20.9079 18.948 20.2621 18.686C19.0082 18.1753 17.1989 17.7724 15.0999 17.5519Z" fill="#508220"/>
</svg>
