<svg width="9" height="12" viewBox="0 0 9 12" fill="none" xmlns="http://www.w3.org/2000/svg">
<path d="M7.62527 0.000146985C7.80246 -0.00313864 7.97629 0.0487308 8.12271 0.148578C8.26913 0.248425 8.38089 0.391313 8.44254 0.557468C8.50418 0.723623 8.51266 0.904831 8.46679 1.07601C8.42093 1.2472 8.32299 1.3999 8.18653 1.51297L2.96421 5.98372L8.18976 10.4545C8.28523 10.5241 8.36523 10.6127 8.42472 10.7147C8.48421 10.8168 8.5219 10.9301 8.53541 11.0475C8.54892 11.1648 8.53795 11.2837 8.5032 11.3966C8.46845 11.5096 8.41067 11.614 8.33351 11.7035C8.25635 11.793 8.16149 11.8655 8.0549 11.9164C7.94831 11.9674 7.83232 11.9957 7.71425 11.9995C7.59617 12.0034 7.47858 11.9828 7.36888 11.9389C7.25918 11.8951 7.15977 11.8289 7.07691 11.7447L1.10302 6.63852C1.00907 6.55828 0.933632 6.45862 0.881907 6.34641C0.830182 6.2342 0.803396 6.11211 0.803396 5.98856C0.803396 5.865 0.830182 5.74291 0.881907 5.63071C0.933632 5.5185 1.00907 5.41884 1.10302 5.33859L7.07691 0.216265C7.2283 0.081492 7.42264 0.00489633 7.62527 0.000146985Z" fill="#1C4F78"/>
</svg>
