<svg width="9" height="12" viewBox="0 0 9 12" fill="none" xmlns="http://www.w3.org/2000/svg">
<path d="M1.71897 0.000146985C1.54178 -0.00313864 1.36794 0.0487308 1.22153 0.148578C1.07511 0.248425 0.963345 0.391313 0.901701 0.557468C0.840057 0.723623 0.83158 0.904831 0.877445 1.07601C0.923309 1.2472 1.02125 1.3999 1.1577 1.51297L6.38002 5.98372L1.15448 10.4545C1.05901 10.5241 0.97901 10.6127 0.919518 10.7147C0.860025 10.8168 0.822336 10.9301 0.808828 11.0475C0.795321 11.1648 0.806288 11.2837 0.841038 11.3966C0.875788 11.5096 0.933566 11.614 1.01073 11.7035C1.08789 11.793 1.18275 11.8655 1.28934 11.9164C1.39592 11.9674 1.51191 11.9957 1.62999 11.9995C1.74807 12.0034 1.86566 11.9828 1.97536 11.9389C2.08505 11.8951 2.18447 11.8289 2.26733 11.7447L8.24122 6.63852C8.33517 6.55828 8.41061 6.45862 8.46233 6.34641C8.51406 6.2342 8.54084 6.11211 8.54084 5.98856C8.54084 5.865 8.51406 5.74291 8.46233 5.63071C8.41061 5.5185 8.33517 5.41884 8.24122 5.33859L2.26733 0.216265C2.11594 0.081492 1.92159 0.00489633 1.71897 0.000146985Z" fill="#1C4F78"/>
</svg>
