<svg width="17" height="16" viewBox="0 0 17 16" fill="none" xmlns="http://www.w3.org/2000/svg">
<path d="M8.02041 0C3.59813 0 0 3.58897 0 8C0 12.411 3.59813 16 8.02041 16C12.4427 16 16.0408 12.411 16.0408 8C16.0408 3.58897 12.4427 0 8.02041 0ZM12.503 5.89474L7.37717 10.9674C7.07565 11.2682 6.59322 11.2882 6.2716 10.9875L3.55793 8.5213C3.23631 8.22055 3.2162 7.7193 3.49762 7.3985C3.79914 7.07769 4.30167 7.05764 4.62329 7.3584L6.77413 9.32331L11.3572 4.75188C11.6788 4.43108 12.1814 4.43108 12.503 4.75188C12.8246 5.07268 12.8246 5.57393 12.503 5.89474Z" fill="#d6a21e"/>
</svg>
