<svg width="25" height="20" viewBox="0 0 25 20" fill="none" xmlns="http://www.w3.org/2000/svg">
<path d="M1.62175 0C0.730227 0 0 0.740374 0 1.64212V14.8181C0 15.7199 0.731104 16.4602 1.62175 16.4602H19.8178L23.8231 19.8943C23.8868 19.9491 23.9647 19.9844 24.0475 19.9959C24.1304 20.0074 24.2148 19.9947 24.2907 19.9593C24.3666 19.9238 24.431 19.8672 24.4761 19.796C24.5213 19.7248 24.5453 19.642 24.5455 19.5574V1.64212C24.5441 1.20734 24.3728 0.790743 24.069 0.483139C23.7652 0.175535 23.3536 0.00186979 22.9237 0H1.62175ZM1.62175 0.886675H22.9237C23.3445 0.886675 23.6688 1.21563 23.6688 1.64212V18.598L20.2632 15.68C20.184 15.6115 20.0833 15.5738 19.9791 15.5736H1.62175C1.20097 15.5736 0.876623 15.2455 0.876623 14.819V1.64212C0.876623 1.21563 1.20097 0.886675 1.62175 0.886675ZM2.89023 2.47648V2.47826C2.79223 2.47923 2.69738 2.5134 2.62084 2.57531C2.54429 2.63721 2.49047 2.72327 2.46796 2.81975C2.44545 2.91623 2.45556 3.01755 2.49667 3.10754C2.53777 3.19752 2.60751 3.27098 2.69474 3.31616L12.0694 8.26913C12.1321 8.30238 12.2019 8.31974 12.2727 8.31974C12.3436 8.31974 12.4134 8.30238 12.4761 8.26913L21.8507 3.31616C21.9018 3.28921 21.9471 3.25234 21.984 3.20768C22.021 3.16301 22.0489 3.11142 22.0662 3.05584C22.0834 3.00027 22.0897 2.9418 22.0846 2.88377C22.0795 2.82574 22.0632 2.7693 22.0366 2.71766C22.0099 2.66602 21.9735 2.62019 21.9293 2.5828C21.8851 2.5454 21.8341 2.51717 21.7792 2.49972C21.7242 2.48226 21.6664 2.47592 21.6091 2.48107C21.5517 2.48621 21.4959 2.50273 21.4448 2.52968L12.2727 7.37536L3.10062 2.52968C3.036 2.49441 2.96366 2.47611 2.89023 2.47648Z" fill="#508220"/>
</svg>
