<svg width="37" height="37" viewBox="0 0 37 37" fill="none" xmlns="http://www.w3.org/2000/svg">
<path d="M30.915 5.28237C27.5129 1.87797 22.9892 0.0020771 18.1695 0C8.2377 0 0.155249 8.07987 0.151272 18.0112C0.150115 21.1858 0.979592 24.2846 2.5562 27.0162L0 36.3498L9.55165 33.8452C12.1833 35.2804 15.1464 36.0367 18.1617 36.0379H18.1694H18.1695C28.0996 36.0379 36.1833 27.9566 36.1875 18.0258C36.1892 13.2126 34.3166 8.68701 30.915 5.28237ZM18.1695 32.9958H18.1636C15.4759 32.9943 12.8402 32.2728 10.5413 30.9086L9.99419 30.5843L4.32604 32.0704L5.83936 26.546L5.4829 25.9796C3.98368 23.5958 3.19221 20.841 3.19334 18.0123C3.19663 9.75776 9.91446 3.04227 18.1751 3.04227C22.1754 3.04394 25.9352 4.60319 28.7628 7.43283C31.5903 10.2624 33.1464 14.024 33.1452 18.0245C33.1417 26.2794 26.4236 32.9958 18.1695 32.9958Z" fill="#E0E0E0"/>
<path d="M0.827148 35.3141L3.26659 26.4069C1.76161 23.8 0.970172 20.8425 0.971121 17.8135C0.975068 8.33605 8.68839 0.625488 18.1657 0.625488C22.7654 0.627565 27.0826 2.41767 30.3285 5.66665C33.5751 8.9156 35.362 13.2342 35.3602 17.827C35.3562 27.3047 27.6424 35.0159 18.1663 35.0159C18.1668 35.0159 18.1657 35.0159 18.1663 35.0159H18.1587C15.2811 35.015 12.4536 34.2926 9.94231 32.924L0.827148 35.3141Z" fill="url(#paint0_linear_427_1584)"/>
<path fill-rule="evenodd" clip-rule="evenodd" d="M13.717 10.3646C13.3836 9.62346 13.0327 9.60862 12.7155 9.59566C12.4561 9.58453 12.1592 9.58521 11.8627 9.58521C11.5659 9.58521 11.0838 9.69672 10.676 10.1421C10.268 10.5874 9.11816 11.6639 9.11816 13.8535C9.11816 16.0433 10.7131 18.1591 10.9354 18.4563C11.1579 18.753 14.0142 23.3899 18.5377 25.1737C22.2971 26.6562 23.0621 26.3613 23.8781 26.2871C24.6941 26.2129 26.5111 25.2108 26.882 24.1715C27.2529 23.1325 27.2529 22.2419 27.1417 22.0557C27.0304 21.8702 26.7337 21.759 26.2886 21.5364C25.8435 21.3139 23.6556 20.2371 23.2476 20.0887C22.8396 19.9403 22.5428 19.8662 22.2461 20.3117C21.9494 20.7568 21.097 21.759 20.8373 22.0557C20.5777 22.3531 20.3181 22.3902 19.873 22.1677C19.4279 21.9444 17.9945 21.475 16.2941 19.9589C14.9711 18.7794 14.0779 17.3226 13.8183 16.8771C13.5587 16.432 13.7905 16.1909 14.0137 15.969C14.2135 15.7696 14.4588 15.4495 14.6814 15.1896C14.9034 14.9297 14.9776 14.7443 15.126 14.4476C15.2743 14.1504 15.2002 13.8905 15.0889 13.668C14.9776 13.4454 14.1127 11.2446 13.717 10.3646Z" fill="white"/>
<path d="M30.7681 5.22517C27.4051 1.85984 22.9333 0.00552475 18.1689 0.00341797C8.35114 0.00341797 0.361476 7.99053 0.35753 17.8078C0.356372 20.946 1.17632 24.0093 2.73483 26.7095L0.208008 35.9359L9.65002 33.4601C12.2515 34.8788 15.1805 35.6264 18.1613 35.6276H18.1688H18.1689C27.9851 35.6276 35.9759 27.6391 35.9801 17.8222C35.9817 13.0644 34.1306 8.59073 30.7681 5.22517ZM18.1689 32.6204H18.1631C15.5063 32.619 12.9008 31.9057 10.6283 30.5573L10.0875 30.2366L4.48438 31.7057L5.98031 26.2447L5.62794 25.6849C4.14593 23.3284 3.36354 20.6052 3.3647 17.809C3.36794 9.64922 10.0086 3.01083 18.1745 3.01083C22.1289 3.01246 25.8454 4.55382 28.6407 7.35096C31.4357 10.1481 32.9739 13.8665 32.9727 17.8211C32.9692 25.9811 26.3283 32.6204 18.1689 32.6204Z" fill="white"/>
<defs>
<linearGradient id="paint0_linear_427_1584" x1="18.0937" y1="35.3141" x2="18.0937" y2="0.625546" gradientUnits="userSpaceOnUse">
<stop stop-color="#20B038"/>
<stop offset="1" stop-color="#60D66A"/>
</linearGradient>
</defs>
</svg>
