<svg width="47" height="38" viewBox="0 0 47 38" fill="none" xmlns="http://www.w3.org/2000/svg">
<path d="M30.5481 18.9999H37.8215V24.371C37.8215 27.3335 35.2122 29.7421 32.0028 29.7421H31.2755C30.9887 29.7414 30.7047 29.7931 30.4396 29.8941C30.1746 29.9951 29.9338 30.1434 29.731 30.3306C29.5282 30.5178 29.3675 30.7401 29.2581 30.9847C29.1487 31.2294 29.0927 31.4916 29.0934 31.7563V35.7846C29.0927 36.0493 29.1487 36.3115 29.2581 36.5561C29.3675 36.8008 29.5282 37.0231 29.731 37.2103C29.9338 37.3974 30.1746 37.5458 30.4396 37.6468C30.7047 37.7478 30.9887 37.7994 31.2755 37.7988H32.0028C40.0398 37.7988 46.5495 31.7899 46.5495 24.3711V4.22937C46.5495 2.00539 44.5948 0.20105 42.1855 0.20105H30.5481C28.1388 0.20105 26.1841 2.00539 26.1841 4.22937V14.9716C26.1841 17.1955 28.1388 18.9999 30.5481 18.9999ZM4.36401 18.9999H11.6374V24.371C11.6374 27.3335 9.02809 29.7421 5.81869 29.7421H5.0914C4.80465 29.7414 4.5206 29.7931 4.25555 29.8941C3.9905 29.9951 3.74968 30.1434 3.54692 30.3306C3.34416 30.5178 3.18346 30.7401 3.07404 30.9847C2.96463 31.2294 2.90865 31.4916 2.90934 31.7563V35.7846C2.90865 36.0493 2.96463 36.3115 3.07404 36.5561C3.18346 36.8008 3.34416 37.0231 3.54692 37.2103C3.74968 37.3974 3.9905 37.5458 4.25555 37.6468C4.5206 37.7478 4.80465 37.7994 5.0914 37.7988H5.81869C13.8557 37.7988 20.3654 31.7899 20.3654 24.3711V4.22937C20.3654 2.00539 18.4107 0.20105 16.0014 0.20105H4.36401C1.95471 0.20105 0 2.00539 0 4.22937V14.9716C0 17.1955 1.95471 18.9999 4.36401 18.9999Z" fill="#508220"/>
</svg>
