<svg width="237" height="191" viewBox="0 0 237 191" fill="none" xmlns="http://www.w3.org/2000/svg">
<path d="M43.4375 95.5002V96.5002H44.4375H81.4688C93.2621 96.5002 102.688 105.295 102.688 115.964V170.536C102.688 181.206 93.2621 190 81.4688 190H22.2188C10.4254 190 1 181.206 1 170.536V68.2141C1 31.154 33.6163 1.00002 74.0625 1.00002L77.7654 1.00003L77.7676 1.00002C79.1067 0.997055 80.4317 1.2379 81.6656 1.70706C82.8995 2.17619 84.0155 2.86334 84.9514 3.72536C85.8872 4.58722 86.624 5.60634 87.1239 6.7218C87.6237 7.83698 87.8781 9.02885 87.875 10.2298V10.2324V30.6966V30.6992C87.8781 31.9001 87.6237 33.092 87.1239 34.2072C86.624 35.3226 85.8872 36.3417 84.9514 37.2036C84.0155 38.0656 82.8995 38.7527 81.6656 39.2219C80.4317 39.6911 79.1067 39.9319 77.7676 39.9289H77.7654H74.0625C57.249 39.9289 43.4375 52.5366 43.4375 68.2146V95.5002ZM176.75 95.5002V96.5002H177.75H214.781C226.575 96.5002 236 105.295 236 115.964V170.536C236 181.206 226.575 190 214.781 190H155.531C143.738 190 134.312 181.206 134.312 170.536V68.2141C134.312 31.154 166.929 1.00002 207.375 1.00002L211.078 1.00003L211.08 1.00002C212.419 0.997055 213.744 1.2379 214.978 1.70706C216.212 2.17619 217.328 2.86334 218.264 3.72536C219.2 4.58722 219.936 5.60634 220.436 6.7218C220.936 7.83698 221.191 9.02885 221.188 10.2298V10.2324L221.187 30.6966L221.188 30.6992C221.191 31.9001 220.936 33.092 220.436 34.2072C219.936 35.3226 219.2 36.3417 218.264 37.2036C217.328 38.0656 216.212 38.7527 214.978 39.2219C213.744 39.6911 212.419 39.9319 211.08 39.9289H211.078H207.375C190.562 39.9289 176.75 52.5366 176.75 68.2146V95.5002Z" stroke="#DBE2EB" stroke-width="2"/>
</svg>
