<svg width="27" height="27" viewBox="0 0 27 27" fill="none" xmlns="http://www.w3.org/2000/svg">
<path d="M14.1593 21.7435C10.188 19.9824 7.0311 16.7825 5.32381 12.7878L7.6242 11.236C6.9877 9.59063 6.65984 7.84207 6.65705 6.07788H1.16016C1.16016 11.3616 3.25909 16.4288 6.99522 20.165C10.7313 23.9011 15.7986 26 21.0823 26V20.5031C19.2607 20.4991 17.4564 20.1486 15.7657 19.4704L14.1593 21.7435Z" stroke="#d6a21e" stroke-linecap="round" stroke-linejoin="round"/>
<path d="M12.8857 7.71704C14.6247 7.71704 16.2925 8.40786 17.5222 9.63752C18.7519 10.8672 19.4427 12.535 19.4427 14.274" stroke="#d6a21e" stroke-linecap="round" stroke-linejoin="round"/>
<path d="M12.8857 4.43872C15.4943 4.43872 17.9959 5.47495 19.8404 7.31944C21.6849 9.16394 22.7211 11.6656 22.7211 14.2741" stroke="#d6a21e" stroke-linecap="round" stroke-linejoin="round"/>
<path d="M12.8857 1.16016C16.3638 1.16016 19.6993 2.54179 22.1586 5.00112C24.618 7.46044 25.9996 10.796 25.9996 14.274" stroke="#d6a21e" stroke-linecap="round" stroke-linejoin="round"/>
</svg>
